<svg width="209" height="90" viewBox="0 0 209 90" fill="none" xmlns="http://www.w3.org/2000/svg">
<path d="M150.618 65.5802C145.146 71.1557 136.266 71.1559 130.794 65.5802C129.342 64.1009 127.257 61.977 124.986 59.6627L83.7367 59.6626C81.4684 61.9737 79.384 64.0974 77.9288 65.5801C72.4564 71.1557 63.5767 71.1557 58.1043 65.5801C52.632 60.0044 52.6318 50.9573 58.1043 45.3815C52.632 39.8059 52.6318 30.7588 58.1043 25.183C63.58 19.604 72.4564 19.6073 77.9288 25.183C79.3807 26.6623 81.4653 28.7862 83.7367 31.1005L124.986 31.1006C127.258 28.7861 129.342 26.6625 130.794 25.1831C136.269 19.6042 145.146 19.6073 150.619 25.1831C156.091 30.7586 156.094 39.8029 150.618 45.3818C156.091 50.9573 156.094 60.0013 150.618 65.5802Z" fill="#FBD6BF"/>
<circle cx="198" cy="45" r="11" fill="#FBD6BF"/>
<circle cx="11" cy="45" r="11" fill="#FBD6BF"/>
</svg>
